<svg xmlns="http://www.w3.org/2000/svg" viewBox="0 0 560 600" font-family="sans-serif">
<rect width="560" height="600" fill="white"/>
<polygon points="280.0,241.9 306.9,253.1 318.1,280.0 306.9,306.9 280.0,318.1 253.1,306.9 241.9,280.0 253.1,253.1" fill="none" stroke="#ddd" stroke-width="1"/>
<text x="283" y="242" font-size="9" fill="#999">2</text>
<polygon points="280.0,203.8 333.9,226.1 356.2,280.0 333.9,333.9 280.0,356.2 226.1,333.9 203.8,280.0 226.1,226.1" fill="none" stroke="#ddd" stroke-width="1"/>
<text x="283" y="204" font-size="9" fill="#999">4</text>
<polygon points="280.0,165.8 360.8,199.2 394.2,280.0 360.8,360.8 280.0,394.2 199.2,360.8 165.8,280.0 199.2,199.2" fill="none" stroke="#ddd" stroke-width="1"/>
<text x="283" y="166" font-size="9" fill="#999">6</text>
<polygon points="280.0,127.7 387.7,172.3 432.3,280.0 387.7,387.7 280.0,432.3 172.3,387.7 127.7,280.0 172.3,172.3" fill="none" stroke="#ddd" stroke-width="1"/>
<text x="283" y="128" font-size="9" fill="#999">8</text>
<polygon points="280.0,89.6 414.6,145.4 470.4,280.0 414.6,414.6 280.0,470.4 145.4,414.6 89.6,280.0 145.4,145.4" fill="none" stroke="#ddd" stroke-width="1"/>
<text x="283" y="90" font-size="9" fill="#999">10</text>
<line x1="280.0" y1="280.0" x2="280.0" y2="89.6" stroke="#ccc" stroke-width="1"/>
<text x="280.0" y="64.8" font-size="12" fill="#333" text-anchor="middle" dominant-baseline="middle">coding</text>
<line x1="280.0" y1="280.0" x2="414.6" y2="145.4" stroke="#ccc" stroke-width="1"/>
<text x="432.1" y="127.9" font-size="12" fill="#333" text-anchor="start" dominant-baseline="middle">extraction</text>
<line x1="280.0" y1="280.0" x2="470.4" y2="280.0" stroke="#ccc" stroke-width="1"/>
<text x="495.2" y="280.0" font-size="12" fill="#333" text-anchor="start" dominant-baseline="middle">humanities</text>
<line x1="280.0" y1="280.0" x2="414.6" y2="414.6" stroke="#ccc" stroke-width="1"/>
<text x="432.1" y="432.1" font-size="12" fill="#333" text-anchor="start" dominant-baseline="middle">math</text>
<line x1="280.0" y1="280.0" x2="280.0" y2="470.4" stroke="#ccc" stroke-width="1"/>
<text x="280.0" y="495.2" font-size="12" fill="#333" text-anchor="middle" dominant-baseline="middle">reasoning</text>
<line x1="280.0" y1="280.0" x2="145.4" y2="414.6" stroke="#ccc" stroke-width="1"/>
<text x="127.9" y="432.1" font-size="12" fill="#333" text-anchor="end" dominant-baseline="middle">roleplay</text>
<line x1="280.0" y1="280.0" x2="89.6" y2="280.0" stroke="#ccc" stroke-width="1"/>
<text x="64.8" y="280.0" font-size="12" fill="#333" text-anchor="end" dominant-baseline="middle">stem</text>
<line x1="280.0" y1="280.0" x2="145.4" y2="145.4" stroke="#ccc" stroke-width="1"/>
<text x="127.9" y="127.9" font-size="12" fill="#333" text-anchor="end" dominant-baseline="middle">writing</text>
<polygon points="280.0,150.1 362.7,197.3 404.0,280.0 377.1,377.1 280.0,406.8 190.2,369.8 142.5,280.0 181.2,181.2" fill="#1f77b4" fill-opacity="0.06" stroke="#1f77b4" stroke-width="2"/>
<polygon points="280.0,141.6 366.0,194.0 413.4,280.0 383.8,383.8 280.0,416.1 185.8,374.2 135.1,280.0 176.2,176.2" fill="#ff7f0e" fill-opacity="0.06" stroke="#ff7f0e" stroke-width="2"/>
<polygon points="280.0,142.7 367.9,192.1 411.0,280.0 385.1,385.1 280.0,412.6 183.3,376.7 135.5,280.0 177.1,177.1" fill="#2ca02c" fill-opacity="0.06" stroke="#2ca02c" stroke-width="2"/>
<polygon points="280.0,148.6 361.8,198.2 409.8,280.0 379.6,379.6 280.0,408.6 188.0,372.0 142.4,280.0 181.8,181.8" fill="#d62728" fill-opacity="0.06" stroke="#d62728" stroke-width="2"/>
<polygon points="280.0,151.1 363.6,196.4 406.7,280.0 380.1,380.1 280.0,408.1 188.3,371.7 142.0,280.0 182.9,182.9" fill="#9467bd" fill-opacity="0.06" stroke="#9467bd" stroke-width="2"/>
<rect x="14" y="568" width="14" height="14" fill="#1f77b4"/>
<text x="32" y="579" font-size="12" fill="#333">E0-REF</text>
<rect x="122" y="568" width="14" height="14" fill="#ff7f0e"/>
<text x="140" y="579" font-size="12" fill="#333">E1-INT8</text>
<rect x="230" y="568" width="14" height="14" fill="#2ca02c"/>
<text x="248" y="579" font-size="12" fill="#333">E2-Q8</text>
<rect x="338" y="568" width="14" height="14" fill="#d62728"/>
<text x="356" y="579" font-size="12" fill="#333">E3-Q5</text>
<rect x="446" y="568" width="14" height="14" fill="#9467bd"/>
<text x="464" y="579" font-size="12" fill="#333">E4-Q4</text>
</svg>